<svg width="2048" height="2048" viewBox="0 0 2048 2048" fill="none" xmlns="http://www.w3.org/2000/svg">
<path d="M1664.26 9.49079e-06H383.659C281.906 9.49079e-06 184.321 40.4211 112.371 112.371C40.4211 184.321 9.49079e-06 281.906 9.49079e-06 383.659V1664.26C-0.0111982 1714.65 9.90416 1764.54 29.1798 1811.1C48.4554 1857.66 76.7137 1899.96 112.341 1935.6C147.968 1971.23 190.266 1999.5 236.819 2018.79C283.372 2038.07 333.269 2048 383.659 2048H1664.26C1714.65 2048.01 1764.56 2038.09 1811.12 2018.81C1857.68 1999.53 1899.99 1971.27 1935.63 1935.63C1971.27 1899.99 1999.53 1857.68 2018.81 1811.12C2038.09 1764.56 2048.01 1714.65 2048 1664.26V383.659C2048 333.269 2038.07 283.372 2018.79 236.819C1999.5 190.266 1971.23 147.968 1935.6 112.341C1899.96 76.7137 1857.66 48.4554 1811.1 29.1798C1764.54 9.90416 1714.65 -0.0111982 1664.26 9.49079e-06Z" fill="url(#paint0_linear_15_14)"/>
<path d="M773.547 285.27C835.186 259.941 902.281 250.805 968.448 258.73C1053.78 268.459 1129.81 304.811 1196.54 367.445C1197.43 368.309 1198.52 368.933 1199.72 369.262C1200.91 369.59 1202.17 369.611 1203.37 369.322C1290.12 346.912 1381.96 355.203 1463.3 392.789L1467.31 394.581L1477.21 399.53C1562.34 442.657 1628.75 515.443 1663.92 604.16C1681.75 647.68 1690.71 692.992 1690.88 740.267C1692.16 775.68 1688.32 810.496 1679.36 844.715C1678.88 846.444 1678.87 848.269 1679.32 850.006C1679.77 851.743 1680.66 853.332 1681.92 854.613C1732.61 906.325 1766.23 968.022 1782.87 1039.62C1807.53 1161.3 1782.27 1270.87 1707.18 1368.58L1695.57 1382.74C1645.83 1439.65 1580.55 1480.79 1507.75 1501.1C1506.17 1501.56 1504.72 1502.4 1503.54 1503.55C1502.35 1504.69 1501.45 1506.1 1500.93 1507.67C1484.63 1554.69 1468.16 1594.97 1437.7 1635.16C1360.9 1736.36 1248.17 1792.68 1121.02 1792C1019.73 1791.49 929.878 1754.45 851.627 1680.9C850.445 1679.77 848.979 1678.98 847.387 1678.62C845.794 1678.26 844.133 1678.34 842.581 1678.85C809.472 1689.51 776.021 1691.14 739.925 1690.71C682.261 1690.24 625.465 1676.61 573.866 1650.86C519.824 1624.07 472.781 1585.03 436.48 1536.85C423.51 1519.7 410.624 1503.49 401.237 1484.29C388.304 1457.94 377.738 1430.5 369.664 1402.28C352.62 1338.05 352.239 1270.53 368.555 1206.1C369.054 1204.59 369.2 1202.98 368.981 1201.41C368.696 1199.82 367.884 1198.38 366.678 1197.31C327.227 1157.42 297.069 1109.32 278.357 1056.43C265.958 1023.85 258.759 989.523 257.024 954.709C253.916 908.849 257.975 862.785 269.056 818.176C297.813 723.285 352.853 648.789 434.005 594.688C452.096 582.741 469.163 573.355 485.291 566.613C503.638 558.933 521.984 552.533 540.416 547.157C541.731 546.77 542.927 546.06 543.896 545.091C544.865 544.122 545.576 542.925 545.963 541.61C559.922 491.33 583.961 444.412 616.618 403.712C657.859 351.38 711.913 310.583 773.547 285.27ZM1008.66 660.385C983.572 648.913 954.094 653.13 933.228 671.179L741.896 836.667H624.5C605.802 836.667 587.871 844.094 574.649 857.315C561.428 870.537 554 888.469 554 907.167V1142.23C554 1181.17 585.564 1212.73 624.5 1212.73H738.866L933.226 1380.85C954.092 1398.9 983.57 1403.12 1008.66 1391.65C1033.75 1380.18 1049.85 1355.12 1049.85 1327.53V724.501C1049.85 696.912 1033.75 671.857 1008.66 660.385ZM1363.28 696.715C1346.85 676.264 1316.95 673.004 1296.5 689.434C1276.05 705.863 1272.79 735.762 1289.22 756.213C1350.59 832.601 1384.04 927.649 1384.04 1025.63C1384.04 1123.62 1350.59 1218.67 1289.22 1295.05C1272.79 1315.51 1276.05 1345.4 1296.5 1361.83C1316.95 1378.26 1346.85 1375 1363.28 1354.55C1438.2 1261.3 1479.04 1145.26 1479.04 1025.63C1479.04 906.011 1438.2 789.972 1363.28 696.715ZM1284.46 778.306C1268.9 757.189 1239.16 752.688 1218.04 768.253C1196.93 783.818 1192.43 813.555 1207.99 834.672C1248.77 889.991 1270.77 956.911 1270.77 1025.63C1270.77 1094.36 1248.77 1161.28 1207.99 1216.6C1192.43 1237.71 1196.93 1267.45 1218.04 1283.01C1239.16 1298.58 1268.9 1294.08 1284.46 1272.96C1337.27 1201.31 1365.77 1114.64 1365.77 1025.63C1365.77 936.625 1337.27 849.954 1284.46 778.306ZM1198.53 867.837C1184.13 845.906 1154.68 839.796 1132.75 854.19C1110.82 868.585 1104.71 898.034 1119.11 919.965C1139.71 951.356 1150.69 988.085 1150.69 1025.63C1150.69 1063.18 1139.71 1099.91 1119.11 1131.3C1104.71 1153.23 1110.82 1182.68 1132.75 1197.08C1154.68 1211.47 1184.13 1205.36 1198.53 1183.43C1229.29 1136.56 1245.69 1081.71 1245.69 1025.63C1245.69 969.562 1229.29 914.713 1198.53 867.837Z" fill="url(#paint1_linear_15_14)"/>
<defs>
<linearGradient id="paint0_linear_15_14" x1="1024" y1="9.49079e-06" x2="1024" y2="2048" gradientUnits="userSpaceOnUse">
<stop stop-color="#012659"/>
<stop offset="1" stop-color="#0968DA"/>
</linearGradient>
<linearGradient id="paint1_linear_15_14" x1="841.302" y1="256" x2="1213.35" y2="1793.45" gradientUnits="userSpaceOnUse">
<stop stop-color="white"/>
<stop offset="1" stop-color="#6BB6FE"/>
</linearGradient>
</defs>
</svg>
